<mxfile host="app.diagrams.net" modified="2022-07-07T14:31:57.605Z" agent="5.0 (Macintosh; Intel Mac OS X 10_15_7) AppleWebKit/537.36 (KHTML, like Gecko) Chrome/103.0.5060.53 Safari/537.36" etag="6yyr9GM-4nYyxJPfolU1" version="20.0.4" type="github">
  <diagram id="_z7J9TWY1c6EhE4XDfh3" name="Page-1">
    <mxGraphModel dx="1018" dy="592" grid="1" gridSize="10" guides="1" tooltips="1" connect="1" arrows="1" fold="1" page="1" pageScale="1" pageWidth="827" pageHeight="1169" math="0" shadow="0">
      <root>
        <mxCell id="0" />
        <mxCell id="1" parent="0" />
        <mxCell id="0Ff3-hqbQeK48gbbymod-4" style="edgeStyle=orthogonalEdgeStyle;rounded=0;orthogonalLoop=1;jettySize=auto;html=1;entryX=0.5;entryY=0;entryDx=0;entryDy=0;" edge="1" parent="1" source="0Ff3-hqbQeK48gbbymod-1" target="0Ff3-hqbQeK48gbbymod-3">
          <mxGeometry relative="1" as="geometry" />
        </mxCell>
        <mxCell id="0Ff3-hqbQeK48gbbymod-1" value="HTTP request from on-prem or cloud instance" style="ellipse;whiteSpace=wrap;html=1;" vertex="1" parent="1">
          <mxGeometry x="360" y="40" width="120" height="80" as="geometry" />
        </mxCell>
        <mxCell id="0Ff3-hqbQeK48gbbymod-12" style="edgeStyle=orthogonalEdgeStyle;rounded=0;orthogonalLoop=1;jettySize=auto;html=1;entryX=0.5;entryY=0;entryDx=0;entryDy=0;" edge="1" parent="1" source="0Ff3-hqbQeK48gbbymod-2" target="0Ff3-hqbQeK48gbbymod-11">
          <mxGeometry relative="1" as="geometry" />
        </mxCell>
        <mxCell id="0Ff3-hqbQeK48gbbymod-2" value="Write to Insights DB" style="rounded=1;whiteSpace=wrap;html=1;" vertex="1" parent="1">
          <mxGeometry x="240" y="280" width="160" height="60" as="geometry" />
        </mxCell>
        <mxCell id="0Ff3-hqbQeK48gbbymod-5" style="edgeStyle=orthogonalEdgeStyle;rounded=0;orthogonalLoop=1;jettySize=auto;html=1;" edge="1" parent="1" source="0Ff3-hqbQeK48gbbymod-3" target="0Ff3-hqbQeK48gbbymod-2">
          <mxGeometry relative="1" as="geometry">
            <Array as="points">
              <mxPoint x="300" y="220" />
            </Array>
          </mxGeometry>
        </mxCell>
        <mxCell id="0Ff3-hqbQeK48gbbymod-9" value="insights" style="edgeLabel;html=1;align=center;verticalAlign=middle;resizable=0;points=[];" vertex="1" connectable="0" parent="0Ff3-hqbQeK48gbbymod-5">
          <mxGeometry x="0.0933" y="-1" relative="1" as="geometry">
            <mxPoint as="offset" />
          </mxGeometry>
        </mxCell>
        <mxCell id="0Ff3-hqbQeK48gbbymod-7" style="edgeStyle=orthogonalEdgeStyle;rounded=0;orthogonalLoop=1;jettySize=auto;html=1;" edge="1" parent="1" source="0Ff3-hqbQeK48gbbymod-3" target="0Ff3-hqbQeK48gbbymod-6">
          <mxGeometry relative="1" as="geometry">
            <Array as="points">
              <mxPoint x="540" y="220" />
            </Array>
          </mxGeometry>
        </mxCell>
        <mxCell id="0Ff3-hqbQeK48gbbymod-10" value="consumprtions" style="edgeLabel;html=1;align=center;verticalAlign=middle;resizable=0;points=[];" vertex="1" connectable="0" parent="0Ff3-hqbQeK48gbbymod-7">
          <mxGeometry x="-0.2133" relative="1" as="geometry">
            <mxPoint as="offset" />
          </mxGeometry>
        </mxCell>
        <mxCell id="0Ff3-hqbQeK48gbbymod-3" value="Insights or Consumption" style="rhombus;whiteSpace=wrap;html=1;" vertex="1" parent="1">
          <mxGeometry x="360" y="160" width="120" height="80" as="geometry" />
        </mxCell>
        <mxCell id="0Ff3-hqbQeK48gbbymod-6" value="Patch Output ID in Task DB" style="rounded=1;whiteSpace=wrap;html=1;" vertex="1" parent="1">
          <mxGeometry x="440" y="280" width="160" height="60" as="geometry" />
        </mxCell>
        <mxCell id="0Ff3-hqbQeK48gbbymod-11" value="Done" style="ellipse;whiteSpace=wrap;html=1;" vertex="1" parent="1">
          <mxGeometry x="260" y="380" width="120" height="80" as="geometry" />
        </mxCell>
      </root>
    </mxGraphModel>
  </diagram>
</mxfile>
